Coordinates
version=1
nRows=19
nColumns=24
inDegrees=yes

Units are S.I. units (second, meters, Newtons, ...)
Angles are in degrees.

endheader
time	pelvis_tilt	pelvis_list	pelvis_rotation	pelvis_tx	pelvis_ty	pelvis_tz	hip_flexion_r	hip_adduction_r	hip_rotation_r	knee_angle_r	ankle_angle_r	subtalar_angle_r	mtp_angle_r	hip_flexion_l	hip_adduction_l	hip_rotation_l	knee_angle_l	ankle_angle_l	subtalar_angle_l	mtp_angle_l	lumbar_extension	lumbar_bending	lumbar_rotation
      5.77000000	     31.87643942	      4.75320166	      4.74204710	      2.29672733	      0.68225450	     -0.27127997	    -13.25192228	     -3.79086811	    -14.31781384	    -59.48843892	     11.96573894	      1.09236942	      0.00000000	    -30.28122867	      3.95621515	     -2.94396420	    -10.71597702	     13.98213915	     14.00140909	      0.00000000	    -60.46268838	     -0.82624707	     -4.78007563
      5.77500000	     31.83131630	      5.02056231	      5.39738571	      2.30306777	      0.68258443	     -0.27115708	    -12.74028036	     -3.76548072	    -14.89115227	    -58.14018206	     12.42756918	      1.57242946	      0.00000000	    -30.95730420	      3.74710042	     -2.77115838	    -10.46617121	     14.20032202	     14.42171518	      0.00000000	    -60.56408186	     -0.56292395	     -5.59947286
      5.78000000	     31.71660124	      5.22109597	      5.79044043	      2.30941146	      0.68274042	     -0.27090816	    -12.09878408	     -3.77744712	    -15.16508523	    -56.77430593	     12.76639431	      2.19480934	      0.00000000	    -31.53989051	      3.62688910	     -2.88810593	    -10.25292740	     14.39296910	     14.75176158	      0.00000000	    -60.59780828	     -0.45237763	     -6.19769179
      5.78500000	     31.63951123	      5.50749753	      6.28388782	      2.31572880	      0.68283824	     -0.27062594	    -11.60471099	     -3.84051086	    -15.55187958	    -55.24969292	     13.09440547	      2.70639087	      0.00000000	    -32.11107951	      3.50350288	     -2.93423524	    -10.15395774	     14.62280469	     15.14982073	      0.00000000	    -60.68948219	     -0.33521742	     -6.92776975
      5.79000000	     31.65068792	      5.84627754	      6.90263645	      2.32203296	      0.68293107	     -0.27038438	    -11.33842848	     -3.91130505	    -16.09206558	    -53.52411566	     13.40244018	      3.05941041	      0.00000000	    -32.72571563	      3.33299779	     -2.76896121	    -10.17112684	     14.87595122	     15.43570194	      0.00000000	    -60.88848016	     -0.15494241	     -7.74293633
      5.79500000	     31.54317386	      6.14242484	      7.22880381	      2.32831140	      0.68279455	     -0.26995902	    -10.85833916	     -4.04830713	    -16.28412515	    -51.83700366	     13.63011030	      3.55245945	      0.00000000	    -33.20835407	      3.29893413	     -2.96017009	    -10.19329012	     15.10994126	     15.75836858	      0.00000000	    -60.99508022	     -0.18136854	     -8.36876130
      5.80000000	     31.56419268	      6.55217204	      7.83989543	      2.33464535	      0.68271205	     -0.26969089	    -10.74051154	     -4.20840013	    -16.82777204	    -49.87905631	     13.86474633	      3.82372946	      0.00000000	    -33.78685557	      3.16521928	     -2.77412958	    -10.34161250	     15.45440071	     16.09963188	      0.00000000	    -61.20547963	     -0.04842472	     -9.15460003
      5.80500000	     31.53200541	      6.93309869	      8.27405864	      2.34095383	      0.68247978	     -0.26929728	    -10.54269350	     -4.39136430	    -17.14640146	    -47.88339464	     14.06411710	      4.13636597	      0.00000000	    -34.29632697	      3.10582687	     -2.76636565	    -10.51319746	     15.76745829	     16.39865196	      0.00000000	    -61.38708627	     -0.03453236	     -9.83941932
      5.81000000	     31.52332872	      7.32299474	      8.73461554	      2.34727732	      0.68220674	     -0.26892247	    -10.44923093	     -4.56744138	    -17.47352071	    -45.75043819	     14.18317984	      4.38462503	      0.00000000	    -34.81317744	      3.02396951	     -2.67183693	    -10.73307547	     16.09223154	     16.64282987	      0.00000000	    -61.59595039	      0.00427778	    -10.54123364
      5.81500000	     31.46604361	      7.73529424	      9.12520570	      2.35359042	      0.68179479	     -0.26844654	    -10.33340164	     -4.78233941	    -17.70810017	    -43.54341158	     14.37826588	      4.54736454	      0.00000000	    -35.25728834	      2.99138136	     -2.63795236	    -11.00764020	     16.43735266	     16.97355941	      0.00000000	    -61.77367840	     -0.05030010	    -11.12286794
      5.82000000	     31.39014679	      8.13902251	      9.46022885	      2.35989091	      0.68130427	     -0.26791734	    -10.22720970	     -4.99230246	    -17.82347289	    -41.24693419	     14.50735187	      4.66648668	      0.00000000	    -35.66725449	      2.97399106	     -2.62183933	    -11.31393983	     16.76561151	     17.31523948	      0.00000000	    -61.94190882	     -0.13522684	    -11.74355843
      5.82500000	     31.40728098	      8.54827455	      9.91119617	      2.36625110	      0.68083372	     -0.26754785	    -10.36474676	     -5.16423176	    -18.09827629	    -38.75195346	     14.65325388	      4.73259086	      0.00000000	    -36.18235368	      2.87604222	     -2.37841833	    -11.62810142	     17.12505780	     17.42917372	      0.00000000	    -62.18377304	     -0.10361671	    -12.30308233
      5.83000000	     31.28501836	      8.93771789	     10.18495203	      2.37258181	      0.68017218	     -0.26695846	    -10.29629868	     -5.36070106	    -18.07528337	    -36.26503843	     14.76309003	      4.64725713	      0.00000000	    -36.52863981	      2.86769530	     -2.35062926	    -11.97667745	     17.46843766	     17.78541247	      0.00000000	    -62.30881000	     -0.23781468	    -12.79475951
      5.83500000	     31.23076679	      9.32847012	     10.55913277	      2.37895875	      0.67953201	     -0.26650463	    -10.42599435	     -5.52032656	    -18.16808085	    -33.60460049	     14.86314423	      4.54853523	      0.00000000	    -36.95469466	      2.78178550	     -2.13641799	    -12.32376802	     17.81987907	     18.01515817	      0.00000000	    -62.48732393	     -0.26754702	    -13.27510360
      5.84000000	     31.16294868	      9.71398272	     10.87042737	      2.38534558	      0.67881433	     -0.26604206	    -10.56981040	     -5.69362881	    -18.16780051	    -30.87856734	     14.96332070	      4.42980156	      0.00000000	    -37.37499148	      2.72684909	     -1.92512369	    -12.65911815	     18.14348128	     18.21457161	      0.00000000	    -62.65336237	     -0.34169765	    -13.69533858
      5.84500000	     31.08363133	     10.08491530	     11.15817225	      2.39176185	      0.67803908	     -0.26562375	    -10.74519013	     -5.86466033	    -18.12441005	    -28.07588897	     15.04007984	      4.28656389	      0.00000000	    -37.78970064	      2.67195130	     -1.68123721	    -12.98855159	     18.45084488	     18.40431618	      0.00000000	    -62.79730393	     -0.41609295	    -14.05459067
      5.85000000	     30.98196242	     10.44901271	     11.41154858	      2.39819078	      0.67720217	     -0.26517841	    -10.92720049	     -6.04255057	    -18.03098849	    -25.21641864	     15.07492629	      4.11274373	      0.00000000	    -38.19015405	      2.62709777	     -1.43246979	    -13.29840131	     18.73498497	     18.58708783	      0.00000000	    -62.92127687	     -0.51566518	    -14.39230978
      5.85500000	     30.87514200	     10.80885603	     11.65297509	      2.40465759	      0.67632142	     -0.26478044	    -11.14703718	     -6.23107914	    -17.92732331	    -22.30643075	     15.07874757	      3.96402427	      0.00000000	    -38.59945982	      2.58325136	     -1.14738683	    -13.58800236	     18.98755143	     18.75017531	      0.00000000	    -63.03583290	     -0.62020392	    -14.69245443
      5.86000000	     30.85037346	     11.18490736	     11.89045732	      2.41116483	      0.67544438	     -0.26449188	    -11.52621577	     -6.44330878	    -17.94375202	    -19.32889179	     15.10094211	      4.00185369	      0.00000000	    -39.12288885	      2.53390625	     -0.75573051	    -13.84466968	     19.19561975	     18.87352836	      0.00000000	    -63.20460800	     -0.68804722	    -14.98489684
